<?xml version="1.0" encoding="UTF-8" ?>
<!DOCTYPE svg PUBLIC "-//W3C//DTD SVG 1.1//EN" "http://www.w3.org/Graphics/SVG/1.1/DTD/svg11.dtd">
<svg width="300pt" height="345pt" viewBox="0 0 300 345" version="1.1" xmlns="http://www.w3.org/2000/svg">
<path fill="#ffffff" d=" M 0.00 0.00 L 300.00 0.00 L 300.00 251.81 C 299.87 249.87 299.74 247.93 299.74 245.99 C 299.78 195.98 299.72 145.98 299.76 95.98 C 299.73 92.03 300.22 87.63 297.76 84.24 C 295.76 81.77 292.72 80.54 290.07 78.93 C 249.11 55.55 208.18 32.14 167.23 8.74 C 163.77 6.72 160.21 4.89 156.87 2.66 C 152.65 -0.78 145.37 -0.41 142.26 4.36 C 139.51 7.61 140.35 12.09 140.24 15.99 C 140.25 62.13 140.26 108.26 140.24 154.40 C 98.28 130.03 56.33 105.65 14.39 81.26 C 12.02 80.34 9.38 80.35 6.88 80.60 C 3.01 81.62 0.41 85.39 0.00 89.25 L 0.00 0.00 Z" />
<path fill="#006600" d=" M 142.26 4.36 C 145.37 -0.41 152.65 -0.78 156.87 2.66 C 158.62 4.73 160.34 7.13 160.22 9.97 C 160.34 15.97 160.20 21.96 160.25 27.96 C 160.26 74.02 160.23 120.07 160.26 166.13 C 160.14 169.93 160.89 174.17 158.62 177.52 C 155.79 182.05 149.08 183.09 144.70 180.30 C 139.75 177.48 134.86 174.54 129.91 171.71 C 93.27 150.46 56.69 129.09 20.01 107.90 C 19.99 149.36 20.01 190.82 20.00 232.28 C 19.96 237.91 20.08 243.55 19.98 249.18 C 20.09 254.79 14.56 259.86 8.95 259.03 C 6.54 259.05 4.62 257.41 2.81 256.05 C 1.32 254.43 0.40 252.38 0.00 250.24 L 0.00 89.25 C 0.41 85.39 3.01 81.62 6.88 80.60 C 9.38 80.35 12.02 80.34 14.39 81.26 C 56.33 105.65 98.28 130.03 140.24 154.40 C 140.26 108.26 140.25 62.13 140.24 15.99 C 140.35 12.09 139.51 7.61 142.26 4.36 Z" />
<path fill="#0000ff" d=" M 156.87 2.66 C 160.21 4.89 163.77 6.72 167.23 8.74 C 208.18 32.14 249.11 55.55 290.07 78.93 C 292.72 80.54 295.76 81.77 297.76 84.24 C 300.22 87.63 299.73 92.03 299.76 95.98 C 299.72 145.98 299.78 195.98 299.74 245.99 C 299.74 247.93 299.87 249.87 300.00 251.81 L 300.00 253.86 C 299.22 258.53 294.92 262.75 290.05 262.56 C 286.89 262.82 284.29 260.77 281.67 259.36 C 243.80 237.52 205.93 215.72 168.05 193.90 C 162.07 190.37 155.92 187.12 150.11 183.30 C 109.95 205.51 69.67 227.51 29.55 249.79 C 69.23 274.20 108.75 298.89 148.34 323.45 C 170.43 310.77 192.51 298.08 214.58 285.39 C 219.14 283.55 225.22 285.07 227.40 289.76 C 230.29 294.39 228.09 300.85 223.52 303.48 C 200.92 316.54 178.24 329.47 155.64 342.52 C 153.94 343.50 152.15 344.33 150.31 345.00 L 145.96 345.00 C 141.92 343.26 138.36 340.66 134.61 338.41 C 92.85 312.50 51.10 286.58 9.34 260.66 C 7.07 259.26 4.70 257.95 2.81 256.05 C 4.62 257.41 6.54 259.05 8.95 259.03 C 14.56 259.86 20.09 254.79 19.98 249.18 C 20.08 243.55 19.96 237.91 20.00 232.28 C 56.61 212.05 93.28 191.91 129.91 171.71 C 134.86 174.54 139.75 177.48 144.70 180.30 C 149.08 183.09 155.79 182.05 158.62 177.52 C 160.89 174.17 160.14 169.93 160.26 166.13 C 200.07 189.10 239.90 212.05 279.74 234.95 C 279.76 188.72 279.74 142.49 279.75 96.26 C 239.93 73.48 200.08 50.73 160.25 27.96 C 160.20 21.96 160.34 15.97 160.22 9.97 C 160.34 7.13 158.62 4.73 156.87 2.66 Z" />
<path fill="#cccccc" d=" M 160.25 27.96 C 200.08 50.73 239.93 73.48 279.75 96.26 C 279.74 142.49 279.76 188.72 279.74 234.95 C 239.90 212.05 200.07 189.10 160.26 166.13 C 160.23 120.07 160.26 74.02 160.25 27.96 Z" />
<path fill="#333333" d=" M 20.01 107.90 C 56.69 129.09 93.27 150.46 129.91 171.71 C 93.28 191.91 56.61 212.05 20.00 232.28 C 20.01 190.82 19.99 149.36 20.01 107.90 Z" />
<path fill="#ffffff" d=" M 235.77 148.70 C 244.10 138.39 262.11 138.06 270.30 148.70 C 277.80 157.08 277.43 170.91 269.75 179.07 C 269.77 178.54 269.80 177.47 269.82 176.94 C 271.46 172.84 271.64 167.83 268.75 164.24 C 264.62 157.38 253.43 157.62 248.96 163.97 C 244.75 168.92 246.06 177.10 251.31 180.79 C 254.33 183.59 258.69 183.59 262.51 182.98 L 264.75 182.73 C 259.99 186.30 253.72 186.53 248.05 185.70 C 240.96 183.97 234.54 178.80 232.00 171.86 C 229.11 164.20 230.26 154.92 235.77 148.70 Z" />
<path fill="#000000" d=" M 248.96 163.97 C 253.43 157.62 264.62 157.38 268.75 164.24 C 271.64 167.83 271.46 172.84 269.82 176.94 C 268.27 179.82 265.29 181.48 262.51 182.98 C 258.69 183.59 254.33 183.59 251.31 180.79 C 246.06 177.10 244.75 168.92 248.96 163.97 Z" />
<path fill="#cccccc" d=" M 258.50 163.61 C 260.58 162.87 263.87 162.78 265.01 165.14 C 266.64 167.98 264.73 173.04 261.00 172.53 C 256.73 172.99 254.59 165.45 258.50 163.61 Z" />
<path fill="#ffffff" d=" M 29.55 249.79 C 69.67 227.51 109.95 205.51 150.11 183.30 C 155.92 187.12 162.07 190.37 168.05 193.90 C 205.93 215.72 243.80 237.52 281.67 259.36 C 284.29 260.77 286.89 262.82 290.05 262.56 C 294.92 262.75 299.22 258.53 300.00 253.86 L 300.00 345.00 L 150.31 345.00 C 152.15 344.33 153.94 343.50 155.64 342.52 C 178.24 329.47 200.92 316.54 223.52 303.48 C 228.09 300.85 230.29 294.39 227.40 289.76 C 225.22 285.07 219.14 283.55 214.58 285.39 C 192.51 298.08 170.43 310.77 148.34 323.45 C 108.75 298.89 69.23 274.20 29.55 249.79 Z" />
<path fill="#ffffff" d=" M 0.00 250.24 C 0.40 252.38 1.32 254.43 2.81 256.05 C 4.70 257.95 7.07 259.26 9.34 260.66 C 51.10 286.58 92.85 312.50 134.61 338.41 C 138.36 340.66 141.92 343.26 145.96 345.00 L 0.00 345.00 L 0.00 250.24 Z" />
</svg>
