<?xml version="1.0" encoding="iso-8859-1"?>
<!-- Generator: Adobe Illustrator 16.0.0, SVG Export Plug-In . SVG Version: 6.00 Build 0)  -->
<!DOCTYPE svg PUBLIC "-//W3C//DTD SVG 1.1//EN" "http://www.w3.org/Graphics/SVG/1.1/DTD/svg11.dtd">
<svg version="1.1" id="Capa_1" xmlns="http://www.w3.org/2000/svg" xmlns:xlink="http://www.w3.org/1999/xlink" x="0px" y="0px"
	 width="576.002px" height="576.002px" viewBox="0 0 576.002 576.002" style="enable-background:new 0 0 576.002 576.002;"
	 xml:space="preserve">
<g>
	<g id="Share">
		<g>
			<path d="M504.001,468.002c0,19.872-16.128,36-36,36h-360c-19.872,0-36-16.128-36-36v-360c0-19.872,16.128-36,36-36h108
				l119.988-72H72.001c-39.78,0-72,32.22-72,72v432c0,39.78,32.22,72,72,72h432c39.78,0,72-32.22,72-72v-297l-72,54V468.002z
				 M395.425,70.562c-0.359,3.636-0.54,3.024-0.611-0.216c-17.748-0.144-241.632,17.64-250.957,292.933
				c2.664,13.788,48.276-181.765,252.072-222.192c0.072,2.916,0.072,74.916,0.072,74.916l180-108l-180-108
				c0.576-0.36-1.368,57.24-1.188,70.344C396.145,70.382,396.613,70.454,395.425,70.562z M144.469,349.706
				c-0.54,6.264-0.576,9.899-0.576,9.899C143.929,356.114,144.397,353.126,144.469,349.706z"/>
		</g>
	</g>
</g>
<g>
</g>
<g>
</g>
<g>
</g>
<g>
</g>
<g>
</g>
<g>
</g>
<g>
</g>
<g>
</g>
<g>
</g>
<g>
</g>
<g>
</g>
<g>
</g>
<g>
</g>
<g>
</g>
<g>
</g>
</svg>
